<svg xmlns="http://www.w3.org/2000/svg" viewBox="0 0 182 42"><path fill-rule="evenodd" d="M182 0H0v42h182V0zM22.293 15.823L17.448 5.319l-4.845 10.504-11.487 1.362 8.493 7.854-2.255 11.345 10.094-5.65 10.094 5.65-2.255-11.346 8.493-7.853-11.487-1.362zm36.491 0L53.94 5.319l-4.845 10.504-11.487 1.362 8.493 7.854-2.255 11.345 10.094-5.65 10.094 5.65-2.255-11.346 8.493-7.853-11.487-1.362zM90.43 5.319l4.845 10.504 11.487 1.362-8.492 7.854 2.254 11.345-10.094-5.65-10.093 5.65 2.254-11.346-8.492-7.853 11.486-1.362L90.43 5.319zm41.337 10.504l-4.845-10.504-4.845 10.504-11.487 1.362 8.492 7.854-2.254 11.345 10.094-5.65 10.093 5.65-2.254-11.346 8.493-7.853-11.487-1.362zm31.646-10.504l4.845 10.504 11.487 1.362-8.493 7.854 2.255 11.345-10.094-5.65-10.094 5.65 2.255-11.346-8.493-7.853 11.487-1.362 4.845-10.504z" clip-rule="evenodd"/></svg>